<svg xmlns="http://www.w3.org/2000/svg" viewBox="0 0 297 352.26"><defs><style>.cls-1{fill:#bcc6e5;}.cls-2{fill:#f9d2a0;}.cls-3{fill:#1b202b;}.cls-4{fill:#b0b9dd;}.cls-5{fill:#313036;}.cls-6{fill:#f6c38b;}.cls-7{fill:#f4ddc3;}.cls-8{fill:#393333;}.cls-9{fill:#413e4c;}.cls-10{fill:#4a4655;}.cls-11{fill:#615f75;}.cls-12{fill:#38373f;}.cls-13{fill:#fff;}</style></defs><title>资源 2</title><g id="图层_2" data-name="图层 2"><g id="图层_1-2" data-name="图层 1"><path class="cls-1" d="M139.67,239.1c-13.65-1.22-27.57-.75-46-.75-12.76,0-24.41,2.3-33.31,6.09A67.74,67.74,0,0,0,49,248.35c-9.73,2.3-17.71,6.07-22.74,10.71A56.43,56.43,0,0,0,0,306.62V338a14.31,14.31,0,0,0,14.28,14.27H282.72A14.31,14.31,0,0,0,297,338V308.94a58.78,58.78,0,0,0-27.16-49.42,37.38,37.38,0,0,0-5.44-3.67c-5.51-3.92-13.29-7-22.42-8.87a71.34,71.34,0,0,0-8.25-2.61,68.45,68.45,0,0,0-9.33-3.12c-9-4.07-21.09-6.55-34.36-6.55"/><path class="cls-2" d="M97.29,208.87s-.73,12.69-1.85,16.82l52.94,47.62L201.19,226a69.8,69.8,0,0,1-2.35-17.74Z"/><rect class="cls-3" x="137" y="272.12" width="22.79" height="23.98" rx="6.56" ry="6.56"/><path class="cls-4" d="M147.15,274.42,126.71,295a8.24,8.24,0,0,1-12.51-1L74.8,239.87a1.65,1.65,0,0,1,.17-2.14L85.65,227A8.21,8.21,0,0,1,97,226.69L147.09,272A1.66,1.66,0,0,1,147.15,274.42Z"/><path class="cls-4" d="M149.85,274.42,170.29,295a8.24,8.24,0,0,0,12.51-1l39.4-54.13a1.65,1.65,0,0,0-.17-2.14L211.35,227a8.21,8.21,0,0,0-11.34-.29L149.91,272A1.66,1.66,0,0,0,149.85,274.42Z"/><polygon class="cls-5" points="159.8 352.26 136.97 352.26 140.64 293.77 155.8 293.61 159.8 352.26"/><path class="cls-6" d="M201.24,225.67a88.94,88.94,0,0,1-2.64-16.34c-13.16,14-30.29,23.16-50.12,23.16a68.46,68.46,0,0,1-42.21-14.36c7.26,7.77,31.74,33,57.05,41.63l36.57-33.1A8.5,8.5,0,0,1,201.24,225.67Z"/><path class="cls-7" d="M61.61,145.31a13.67,13.67,0,0,1,12.14-6.84c6.58,0,11.92,3.7,11.92,8.25a6.9,6.9,0,0,1-2.8,5.3,3.1,3.1,0,0,0-1.07,3.22,3.58,3.58,0,0,1,.09.35,4.19,4.19,0,0,0,.36,1,6.7,6.7,0,0,1,.62,1.55,7.49,7.49,0,0,1,.5,1.37,3.51,3.51,0,0,0,.46,1.09,7,7,0,0,1,1,2.16,2.74,2.74,0,0,0,.5,1,7,7,0,0,1,1.63,4.42,6.75,6.75,0,0,1-.46,2.41,7.84,7.84,0,0,0-.25,1.09c-1,4.21-4.26,8.29-9,7.88-4.19-.38-6.33-2.53-8.19-5.34-.23-.36-.46-.71-.71-1.07a21.57,21.57,0,0,1-1.88-3.31c-.18-.37-.4-.6-.7-1.08a17.37,17.37,0,0,1-1.37-2.83,11.32,11.32,0,0,0-.48-1.06c-.36-.71-.41-.93-.87-1.81a12.5,12.5,0,0,1-.53-1.69c-.11-.36-.15-.74-.27-1.05a16.19,16.19,0,0,1-.78-2.82c-.06-.26-.09-.81-.25-1.5a16,16,0,0,1-.62-3.5,8.92,8.92,0,0,1,0-2.42"/><path class="cls-7" d="M233.29,143.06a13.67,13.67,0,0,0-12.14-6.84c-6.59,0-11.92,3.7-11.92,8.25a6.9,6.9,0,0,0,2.8,5.3A3.1,3.1,0,0,1,213.1,153a2,2,0,0,0-.09.35,3.81,3.81,0,0,1-.37,1,7.14,7.14,0,0,0-.61,1.55,7.49,7.49,0,0,0-.5,1.37,3.51,3.51,0,0,1-.46,1.09,7,7,0,0,0-.95,2.16,2.9,2.9,0,0,1-.5,1,7,7,0,0,0-1.63,4.42,6.75,6.75,0,0,0,.46,2.41,7.84,7.84,0,0,1,.25,1.09c1,4.21,4.26,8.29,9,7.88,4.19-.38,6.33-2.53,8.19-5.34.23-.36.46-.71.71-1.07a21.57,21.57,0,0,0,1.88-3.31c.18-.37.4-.6.7-1.08a17.37,17.37,0,0,0,1.37-2.83,11.32,11.32,0,0,1,.48-1.06c.36-.71.4-.93.87-1.81a12.5,12.5,0,0,0,.53-1.69c.11-.36.15-.74.27-1.05a16.19,16.19,0,0,0,.78-2.82c0-.26.09-.81.25-1.5a16,16,0,0,0,.62-3.5,8.92,8.92,0,0,0,0-2.42"/><path class="cls-7" d="M84.21,120.15a81.57,81.57,0,0,0-8,35.49,80,80,0,0,0,20.24,53.74c12.89,14.26,30.87,23.12,50.76,23.12,39.21,0,71-34.41,71-76.86A81.61,81.61,0,0,0,210.07,120c-15.63,3.28-38.22,5.34-63.36,5.34C122,125.31,99.8,123.32,84.21,120.15Z"/><path class="cls-8" d="M84.43,118.65l-18.88-5.09,2.75,35,11.38,7,4.74-35.88-.47-.09C84.1,119.27,84.27,119,84.43,118.65Z"/><path class="cls-8" d="M210.5,118.72l4.94,35.86,11.13-6.5,2.6-35.26c-3.9,2.14-10,4.09-17.84,5.74Z"/><ellipse class="cls-9" cx="148.5" cy="110.21" rx="87.61" ry="17.35"/><path class="cls-10" d="M228.76,97.65c-17.14-19.32-46.69-32.09-80.29-32.09s-63.08,12.74-80.23,32l.11.06c14.21-7.55,44.77-12.77,80.19-12.77S214.57,90.1,228.76,97.65Z"/><path class="cls-11" d="M148.5,0C87.44,0,38,25.24,38,56.38c0,13.78,9.7,26.39,25.8,36.19,16.22-20.08,48-33.72,84.44-33.72s68.46,13.75,84.63,34c16.35-9.83,26.23-22.54,26.23-36.44C259.05,25.24,209.56,0,148.5,0Zm17.1,31.08a17.89,17.89,0,0,1-2,8.44,18.43,18.43,0,0,1-4.73,5.65,28.14,28.14,0,0,1-10,4.94l-.38.1-.38-.1a28.14,28.14,0,0,1-10-4.94,18.43,18.43,0,0,1-4.73-5.65,17.89,17.89,0,0,1-2-8.44V14h1.49c.1,0,9.77,0,14.74-3.76l.87-.65.87.65C154.34,14,164,14,164.11,14h1.49v17Z"/><rect class="cls-12" x="214.29" y="305.59" width="40.56" height="17.76" rx="2.34" ry="2.34"/><path class="cls-13" d="M227.35,315.76l-.25.29-.32.31c-.12.12-.27.25-.43.38V320l-.52.06-.38,0q-.18,0-.21,0v-2.54l-.69.4c-.24.13-.5.27-.79.4l-.59-1.29,1.11-.31,1-.29v-1.6h-.37a.52.52,0,0,0-.23.05l-.17.12a1,1,0,0,0-.14.15L224,315l-.36-.21-.48-.31.12-.12.12-.12a1.47,1.47,0,0,0,.1-.13l.62-3.16h-.87l0-.12h.94l.41-2.05.49.09.47.11a4.58,4.58,0,0,1,.49.15v.08l-.29,0-.34,1.58h1a.28.28,0,0,0,.2-.13.5.5,0,0,0,.11-.13l.29.12.43.22v0h-2l-.77,3.76h.65v-2.47l.47,0,.44.05.46,0v.08l-.26.06v2.2h0a.28.28,0,0,0,.2-.13l.11-.13.26.12.22.11.19.1v.05h-1v1.24l.42-.16.32-.12.26-.1Zm2.92-4.58v1h.52a.43.43,0,0,0,.32-.21l.43.09.38.09.33.08c0,.1-.05.2-.08.3a2.33,2.33,0,0,0-.06.49v5.77a2.53,2.53,0,0,1,0,.38,1.61,1.61,0,0,1-.1.36,1,1,0,0,1-.2.3,1,1,0,0,1-.33.22.59.59,0,0,1-.45,0c-.11-.05-.17-.19-.17-.41a2,2,0,0,0,0-.25.37.37,0,0,0-.16-.2l-.21-.11-.17-.08v.66l-.51.06-.37,0a.34.34,0,0,1-.2,0v-3.24h-.7V320l-.5.07-.37,0q-.18,0-.21,0V312l.42.06.4.06.43.09h.53v-1h-2l-.05-.12h2v-2.12l.44,0,.44,0,.47.06v.09l-.27.08v1.8h1.32s.12-.05.19-.14a.81.81,0,0,0,.11-.13l.27.12.23.12a1.09,1.09,0,0,1,.19.1v.05Zm-1.78,3h.7v-1.85h-.7Zm0,2.22h.7v-2.1h-.7Zm1.78-4.07v1.85H231v-1.85Zm0,4.07H231v-2.1h-.76Zm.46,2.6a.37.37,0,0,0,.24-.06.65.65,0,0,0,.06-.36v-2.06h-.76V319h.46Zm.64-8c-.09-.27-.18-.53-.27-.76s-.18-.45-.26-.63-.17-.4-.26-.58l0,0c.2.06.4.14.6.22a5,5,0,0,1,.51.31,1.85,1.85,0,0,1,.45.43,2.2,2.2,0,0,1-.17.39,2.46,2.46,0,0,1-.25.34A1.58,1.58,0,0,1,231.37,311Z"/><path class="cls-13" d="M240.81,309.08v.48h.35a.26.26,0,0,0,.1,0l.1-.08.11-.14.29.12.23.11.2.1v.05h-1.38v.7c-.2,0-.38.06-.54.08l-.39,0c-.12,0-.19,0-.21,0v-.76H239v.58l-.4.06-.35,0H238a3.77,3.77,0,0,1,.43.1,3.14,3.14,0,0,1,.4.13l0,.07-.27,0a1,1,0,0,1,0,.1s0,.07,0,.11H240a.23.23,0,0,0,.21-.11.25.25,0,0,0,.08-.12l.44.09.38.08.34.07-.06.21c0,.06,0,.13-.05.21a1.49,1.49,0,0,0,0,.21c0,.39,0,.74,0,1.06s0,.63,0,.93c0,.13,0,.24-.06.35a1.48,1.48,0,0,1-.12.29l.32,0,.39.09,0,0a9.6,9.6,0,0,0,.78-.92,6.18,6.18,0,0,0,.55-.82c-.08-.17-.17-.36-.25-.56a3.7,3.7,0,0,1-.2-.64,7.52,7.52,0,0,1-1,1.31h0c.16-.55.28-1.05.37-1.51s.16-.86.22-1.19.1-.75.13-1.08a4.18,4.18,0,0,1,.51.07l.47.08.42.09v.07l-.26,0a6,6,0,0,1-.15.61h1.55a.14.14,0,0,0,.1,0,.39.39,0,0,0,.1-.08.75.75,0,0,0,.11-.13l.29.12.23.11.2.09v.05H245a11.62,11.62,0,0,1-.29,1.34,3.82,3.82,0,0,1-.54,1.18,5.47,5.47,0,0,0,.75.44c.27.14.55.28.86.41v0l-.11.21c0,.08-.09.17-.13.27l-.16.37a.29.29,0,0,1-.2.19.42.42,0,0,1-.24-.05,5.25,5.25,0,0,1-.7-.44,3.93,3.93,0,0,1-.72-.7,5.67,5.67,0,0,1-.75.57,7.66,7.66,0,0,1-1,.53l.31.12a1.21,1.21,0,0,1,.28.18l-.16.26-.19.25a.87.87,0,0,1-.27.23h3.14a.28.28,0,0,0,.2-.13l.11-.13.31.12.25.11.21.1v0h-9.08l0-.12h4.75c-.13-.22-.25-.41-.38-.59l-.3-.41a.89.89,0,0,1-.41.23.59.59,0,0,1-.36,0c-.1,0-.15-.15-.17-.34a1.07,1.07,0,0,0,0-.21.4.4,0,0,0-.13-.13l-.18,0a2.4,2.4,0,0,1-.28,0l-.28,0q-.12,0-.15,0v-.39h-.38v.68l-.41.05-.29,0a.45.45,0,0,1-.17,0v-2.13a5.72,5.72,0,0,1-.45.53,3.37,3.37,0,0,1-.48.45l0,0c.12-.33.23-.67.33-1l.24-.93q.12-.48.21-.93l.12,0,.13,0,.16,0s0,0,0,0v-.64h-1.15l0-.12h1.18v-.78a3.85,3.85,0,0,1,.48,0l.46.05a3.85,3.85,0,0,1,.49.07V309l-.29.08v.48h.69v-.78a3.85,3.85,0,0,1,.48,0l.45.05a4,4,0,0,1,.5.07V309Zm3.87,7.15H238l0-.12h5.67c.07,0,.13-.05.21-.13l.1-.14.29.12.43.22Zm0,.93H238l0-.12h5.67c.07,0,.13,0,.21-.13l.1-.13.29.12.43.22ZM239,311.33l.32.07.31.08.3.08a1.94,1.94,0,0,1-.05.2l0,.21a1.41,1.41,0,0,0,0,.2v1.51a.28.28,0,0,0,.23-.09,1,1,0,0,0,.08-.36c0-.26,0-.58,0-1s0-.8,0-1.23h-1.84l-.2.41.5.11h.07a.24.24,0,0,0,.19-.11A.28.28,0,0,0,239,311.33Zm4.09,6.73a.3.3,0,0,0,.24-.13.32.32,0,0,0,.08-.13l.49.08.44.09.42.12a1.34,1.34,0,0,0-.09.24c0,.07,0,.15,0,.24a2.28,2.28,0,0,0,0,.26V320c-.22,0-.43.06-.61.07l-.45,0c-.13,0-.21,0-.22,0v-.44h-3.89v.46l-.6.07-.43,0c-.14,0-.22,0-.23,0V317.8l.47.07.46.09.5.1Zm-4.56-6.39v1.79h.38v-1.79Zm.9,7.81h3.89v-1.3h-3.89Zm3.81-9.54a6.14,6.14,0,0,1-.49,1.13c.11.15.21.29.32.42l.33.36a5.64,5.64,0,0,0,.29-.94c.06-.31.11-.63.15-1Z"/></g></g></svg>